{"title":"Bbaby.Einstein.World.Animals.2002.Dvdrip.x264.SSloco","uid":11984919,"size":93494359,"categoryP":"video","categoryS":"hd___movies","magnet":"?xt=urn:btih:76c04e0fefbf6bf428374059281a5915a4fef528&amp;dn=Bbaby.Einstein.World.Animals.2002.Dvdrip.x264.SSloco&amp;tr=udp%3A%2F%2Ftracker.openbittorrent.com%3A80&amp;tr=udp%3A%2F%2Fopen.demonii.com%3A1337&amp;tr=udp%3A%2F%2Ftracker.coppersurfer.tk%3A6969&amp;tr=udp%3A%2F%2Fexodus.desync.com%3A6969","seeders":0,"leechers":0,"uploader":"myhoes14","files":1,"time":1433328299,"description":"Source :mpeg original dvd \n\n\nMedia Info\n\n\nFormat : MPEG-4\nFormat profile : Base Media\nCodec ID : isom\nFile size : 89.2 MiB\nDuration : 25mn 13s\nOverall bit rate mode : Variable\nOverall bit rate : 494 Kbps\nEncoded date : UTC 2015-03-24 05:27:50\nTagged date : UTC 2015-03-24 05:27:50\n\nVideo\nID : 1\nFormat : AVC\nFormat/Info : Advanced Video Codec\nFormat profile : &lt;a class=&quot;__cf_email__&quot; href=&quot;/cdn-cgi/l/email-protection&quot; data-cfemail=&quot;c28aaba5aa828ef6ecf3&quot;&gt;[email&amp;#160;protected]&lt;/a&gt;&lt;script data-cfhash='f9e31' type=&quot;text/javascript&quot;&gt;\n/* &lt;![CDATA[ */!function(){try{var t=&quot;currentScript&quot;in document?document.currentScript:function(){for(var t=document.getElementsByTagName(&quot;script&quot;),e=t.length;e--;)if(t[e].getAttribute(&quot;data-cfhash&quot;))return t[e]}();if(t&amp;&amp;t.previousSibling){var e,r,n,i,c=t.previousSibling,a=c.getAttribute(&quot;data-cfemail&quot;);if(a){for(e=&quot;&quot;,r=parseInt(a.substr(0,2),16),n=2;a.length-n;n+=2)i=parseInt(a.substr(n,2),16)^r,e+=String.fromCharCode(i);e=document.createTextNode(e),c.parentNode.replaceChild(e,c)}t.parentNode.removeChild(t);}}catch(u){}}()/* ]]&gt; */&lt;/script&gt;\nFormat settings, CABAC : Yes\nFormat settings, ReFrames : 6 frames\nCodec ID : avc1\nCodec ID/Info : Advanced Video Coding\nDuration : 25mn 13s\nBit rate : 420 Kbps\nMaximum bit rate : 5 549 Kbps\nWidth : 648 pixels\nHeight : 480 pixels\nDisplay aspect ratio : 4:3\nFrame rate mode : Constant\nFrame rate : 29.970 fps\nColor space : YUV\nChroma subsampling : 4:2:0\nBit depth : 8 bits\nScan type : Progressive\nBits/(Pixel*Frame) : 0.045\nStream size : 75.8 MiB (85%)\nWriting library : x264 core 142 r2431 ac76440\nEncoding settings : cabac=1 / ref=6 / deblock=1:-1:-1 / analyse=0x3:0x113 / me=umh / subme=9 / psy=1 / psy_rd=1.00:0.00 / mixed_ref=1 / me_range=32 / chroma_me=1 / trellis=2 / 8x8dct=1 / cqm=0 / deadzone=21,11 / fast_pskip=1 / chroma_qp_offset=-2 / threads=6 / lookahead_threads=1 / sliced_threads=0 / nr=0 / decimate=1 / interlaced=0 / bluray_compat=0 / constrained_intra=0 / bframes=6 / b_pyramid=2 / b_adapt=2 / b_bias=0 / direct=1 / weightb=1 / open_gop=0 / weightp=2 / keyint=300 / keyint_min=29 / scenecut=40 / intra_refresh=0 / rc_lookahead=130 / rc=2pass / mbtree=1 / bitrate=420 / ratetol=1.0 / qcomp=0.60 / qpmin=0 / qpmax=69 / qpstep=4 / cplxblur=20.0 / qblur=0.5 / vbv_maxrate=62500 / vbv_bufsize=78125 / nal_hrd=none / filler=0 / ip_ratio=1.40 / aq=1:1.00\nEncoded date : UTC 2015-03-24 05:27:50\nTagged date : UTC 2015-03-24 05:27:54\nColor primaries : BT.709\nMatrix coefficients : BT.709\nColor range : Limited\n\nAudio\nID : 2\nFormat : AAC\nFormat/Info : Advanced Audio Codec\nFormat profile : HE-AAC / LC\nCodec ID : 40\nDuration : 25mn 13s\nBit rate mode : Variable\nBit rate : 72.0 Kbps\nMaximum bit rate : 104 Kbps\nChannel(s) : 2 channels\nChannel positions : Front: L R\nSampling rate : 48.0 KHz / 24.0 KHz\nCompression mode : Lossy\nStream size : 12.8 MiB (14%)\nLanguage : English\nEncoded date : UTC 2015-03-24 05:26:25\nTagged date : UTC 2015-03-24 05:27:54\n\nMenu\n00:00:00.000 : Chapter 01\n00:02:20.868 : Chapter 02\n00:09:59.168 : Chapter 03\n00:13:59.203 : Chapter 04\n00:23:00.470 : Chapter 05\n00:24:12.171 : Chapter 06\n00:25:11.471 : Chapter 07","torrent":{"xt":"urn:btih:76c04e0fefbf6bf428374059281a5915a4fef528","amp;dn":"Bbaby.Einstein.World.Animals.2002.Dvdrip.x264.SSloco","amp;tr":["udp%3A%2F%2Ftracker.openbittorrent.com%3A80","udp%3A%2F%2Fopen.demonii.com%3A1337","udp%3A%2F%2Ftracker.coppersurfer.tk%3A6969","udp%3A%2F%2Fexodus.desync.com%3A6969"],"infoHash":"76c04e0fefbf6bf428374059281a5915a4fef528","infoHashBuffer":{"type":"Buffer","data":[118,192,78,15,239,191,107,244,40,55,64,89,40,26,89,21,164,254,245,40]},"announce":[],"urlList":[]}}